<svg width="30" height="30" viewBox="0 0 30 30" fill="none" xmlns="http://www.w3.org/2000/svg">
<path d="M30 15C30 23.2843 23.2843 30 15 30C6.71573 30 0 23.2843 0 15C0 6.71573 6.71573 0 15 0C23.2843 0 30 6.71573 30 15Z" fill="white"/>
<path d="M30 15C30 23.2843 23.2843 30 15 30C6.71573 30 0 23.2843 0 15C0 6.71573 6.71573 0 15 0C23.2843 0 30 6.71573 30 15Z" fill="white"/>
<path d="M30 15C30 23.2843 23.2843 30 15 30C6.71573 30 0 23.2843 0 15C0 6.71573 6.71573 0 15 0C23.2843 0 30 6.71573 30 15Z" fill="white"/>
<path d="M29 15C29 22.732 22.732 29 15 29C7.26801 29 1 22.732 1 15C1 7.26801 7.26801 1 15 1C22.732 1 29 7.26801 29 15Z" fill="url(#paint0_linear_6164_115563)"/>
<path d="M29 15C29 22.732 22.732 29 15 29C7.26801 29 1 22.732 1 15C1 7.26801 7.26801 1 15 1C22.732 1 29 7.26801 29 15Z" fill="url(#paint1_linear_6164_115563)"/>
<path d="M29 15C29 22.732 22.732 29 15 29C7.26801 29 1 22.732 1 15C1 7.26801 7.26801 1 15 1C22.732 1 29 7.26801 29 15Z" fill="url(#paint2_linear_6164_115563)"/>
<path d="M12 18.1666C12 16.4492 12.707 14.8946 13.8438 13.7754C13.2312 13.4942 12.5522 13.3334 11.8334 13.3334C9.164 13.3334 7 15.4974 7 18.1666C7 20.836 9.164 23 11.8334 23C12.5522 23 13.231 22.8392 13.8438 22.558C12.707 21.4388 12 19.8842 12 18.1666Z" fill="white"/>
<path d="M18.1666 18C16.4492 18 14.8946 17.293 13.7754 16.1556C13.4942 16.7688 13.3334 17.4478 13.3334 18.1666C13.3334 20.836 15.4974 23 18.1666 23C20.836 23 23 20.836 23 18.1666C23 17.4478 22.8392 16.769 22.558 16.1556C21.4388 17.293 19.8842 18 18.1666 18Z" fill="white"/>
<path d="M18.1666 7C17.4478 7 16.769 7.1608 16.1556 7.442C17.293 8.5612 18 10.1158 18 11.8334C18 13.5508 17.293 15.1054 16.1556 16.2246C16.7688 16.5058 17.4478 16.6666 18.1666 16.6666C20.836 16.6666 23 14.5026 23 11.8334C23 9.164 20.836 7 18.1666 7Z" fill="white"/>
<path d="M11.8334 12C13.5508 12 15.1054 12.707 16.2246 13.8438C16.5058 13.2312 16.6666 12.5522 16.6666 11.8334C16.6666 9.164 14.5026 7 11.8334 7C9.164 7 7 9.164 7 11.8334C7 12.5522 7.1608 13.231 7.442 13.8438C8.5612 12.707 10.1158 12 11.8334 12Z" fill="white"/>
<defs>
<linearGradient id="paint0_linear_6164_115563" x1="1" y1="15" x2="29" y2="15" gradientUnits="userSpaceOnUse">
<stop stop-color="#7E54DB"/>
<stop offset="0.703125" stop-color="#EE46BC"/>
</linearGradient>
<linearGradient id="paint1_linear_6164_115563" x1="1" y1="15" x2="29" y2="15" gradientUnits="userSpaceOnUse">
<stop stop-color="#7E54DB"/>
<stop offset="0.703125" stop-color="#EE46BC"/>
</linearGradient>
<linearGradient id="paint2_linear_6164_115563" x1="1" y1="15" x2="29" y2="15" gradientUnits="userSpaceOnUse">
<stop stop-color="#7E54DB"/>
<stop offset="0.703125" stop-color="#EE46BC"/>
</linearGradient>
</defs>
</svg>
